<svg viewBox="0 0 228.3 412.59" xmlns="http://www.w3.org/2000/svg"><path d="m-92.15 190.64h412.59v31.31h-412.59z" fill="#ddd" transform="matrix(0 -1 1 0 -92.15 320.44)"/><path d="m10.7 95.7h206.89v228.3h-206.89z" fill="#545454" transform="matrix(0 -1 1 0 -95.7 323.99)"/><path d="m80.19 233.1h67.92v228.3h-67.92z" fill="#64d89e" transform="matrix(0 -1 1 0 -233.1 461.4)"/><path d="m103.59 353.17h21.12v77.2h-21.12z" fill="#74e8ab" transform="matrix(0 -1 1 0 -277.62 505.91)"/><path d="m103.59 57.24h21.12v77.2h-21.12z" fill="#777" transform="matrix(0 -1 1 0 18.31 209.99)"/><path d="m75.55 313.29h77.2v33.96h-77.2z" fill="#74e8ab"/><g fill="#f2d4c0"><path d="m0 313.29h75.55v33.96h-75.55z"/><path d="m152.75 313.29h75.55v33.96h-75.55z"/></g></svg>